<svg version="1" xmlns="http://www.w3.org/2000/svg" width="266.667" height="266.667" viewBox="0 0 200.000000 200.000000"><path d="M91.8.7C90.8.9 90 2 90 3c0 .9-.7 2.3-1.4 3-.8.6-2.2 3.5-3.2 6.3-.9 2.9-2.6 6.8-3.8 8.7-4.9 8-7.5 15.8-7.6 22.5 0 2.2.4 11 .9 19.5 1 17.9 1.3 16.6-8.4 28.9-7.5 9.6-9.1 12.3-11.2 19.5-.8 2.8-3.7 9.9-6.5 15.8-3.9 8.5-4.8 11.4-4.3 13.8.7 3 1.9 3.8 3 2 .3-.6 1.8-1 3.2-1 3.5 0 7.4 4.4 15.7 17.9 6 9.7 7.2 11.1 9.5 11.1 3.3 0 5.1-1.7 5.1-4.6 0-4-1.1-5.3-11.7-14.1l-10.6-8.6.6-7.6c.7-8.8 3.3-16.8 8.2-25.8 1.9-3.5 3.5-7.5 3.5-8.9 0-3.3 2.1-8.2 5.9-13.4 2-2.8 3.3-6 3.7-9.3l.7-5.1 3.1 3.6c4.2 4.9 7 6.1 11.5 5.2l3.6-.7-4.9-.8c-2.7-.4-5.6-1.5-6.5-2.3-1.4-1.5-1.2-1.6 2-1.6 5.4 0 12.2-2.4 17.3-6 6.2-4.5 5.2-4.9-1.3-.6-8.1 5.5-16.1 7-21.1 4.1-1.4-.8-3.3-1.8-4.2-2.1-2.1-.7-2.4-4.4-.6-6.2 1-1 1-1.7 0-3.2-3.3-5.3-2.1-16.3 1.9-17.5 4.2-1.4 9.7 5.1 8.5 10-.5 1.9-.1 2.1 4.3 2.1 4.8 0 4.8 0 3.8-2.7-.8-2.1-.6-3.3 1.2-6.3 3.7-6 11.1-6.1 14.1-.1 1.7 3.6 1.8 10.8 0 13-1 1.2-1 1.8 0 3 .7.8 1 3.1.8 5.2-.4 3 .5 5.7 3.9 12.8 2.3 4.9 4.8 11.2 5.5 14 .7 2.7 2.6 6.7 4.1 8.7 5.8 7.5 7 12.7 7.3 30.4.3 20.3 1.1 22.4 9 22.4 5.8 0 10.3-3.3 13.6-10 3.6-7.5 3.7-16.5.3-28.4-3.3-11.5-6.3-17.1-13-24.7-3.4-3.9-7.5-10.4-10.5-16.4-4.3-8.7-5-10.9-5.2-17-.1-3.9.2-10.2.6-14.1l.9-7.1 3.6 1.9c4.1 2.2 9.3 1.8 12.2-.8 2.4-2.2 4.1-7.6 3.2-10.1-1.2-3-25.9-23.2-31.8-25.9C114.7 3.6 95.2-.5 93.8.1c-.2.1-1.1.3-2 .6zm33.7 73.5c1.7.7 2.5 1.9 2.5 3.5 0 3.2-2 2.5-4.3-1.5-2.1-3.5-1.9-3.7 1.8-2z"/><path d="M82.1 51.3c-1.7 1.7-1.3 7.2.7 9.1 1.8 1.5 2 1.5 3.5-.2 1.9-2.1 2.2-4.5.7-7.1-1.2-2.4-3.5-3.2-4.9-1.8zM103.4 52.5c-2.1 3.2-1.1 7.2 2.1 8.7 5.1 2.3 8.9-5.7 4.7-9.5-2.6-2.4-4.9-2.1-6.8.8zM127 158.4v6.4l-6.4 5.9c-8.4 7.9-14.1 10.7-23.4 11.1-8.7.5-16.3-1.7-19.8-5.6l-2.4-2.7 2.2 5.1c3.3 8 1.4 14-5.3 16.8-2.9 1.2-4.1 1.2-8.4 0-7.7-2.2-23.8-5.5-24.2-5-.3.2 2.2 1 5.4 1.6 3.2.7 9.4 2.5 13.7 4.1 4.4 1.6 9.8 2.9 12 2.9 3.4 0 4.5-.6 8.4-4.8l4.4-4.7 12.7.1c15.1.2 26.3 2.3 30 5.8 1.4 1.3 4.3 2.9 6.5 3.6 5.6 1.8 10.1.1 18-6.9 3.7-3.3 10.2-7.8 14.5-10 4.3-2.2 8.4-4.9 9.2-5.8 1.2-1.6 1.2-1.6-.8 0-1.2 1-5.3 3.1-9.2 4.7-3.8 1.6-10 4.9-13.7 7.5-3.7 2.5-7.8 4.8-9.2 5.2-4.3 1-9.4-.9-11.9-4.6-2.2-3.2-2.2-3.8-1.7-20.2.4-9.3.3-16.9 0-16.9s-.6 2.9-.6 6.4zM24.1 182.6c-.1 2.3 2.5 5.1 3.6 4 .3-.3.1-.6-.4-.6-.6 0-1.6-1.2-2.1-2.8-.9-2.3-1.1-2.4-1.1-.6zM35.8 189.7c.7.3 1.6.2 1.9-.1.4-.3-.2-.6-1.3-.5-1.1 0-1.4.3-.6.6z"/></svg>